<?xml version="1.0" encoding="UTF-8"?><svg id="Layer_1" xmlns="http://www.w3.org/2000/svg" viewBox="0 0 1920 1080"><defs><style>.cls-1{letter-spacing:-.02em;}.cls-1,.cls-2,.cls-3,.cls-4,.cls-5,.cls-6,.cls-7,.cls-8,.cls-9{font-family:UncutSansVF-Bold, 'Uncut Sans VF';font-size:198.45px;font-variation-settings:'wght' 700, 'slnt' 0;}.cls-2{letter-spacing:-.01em;}.cls-10,.cls-11{fill:#fff;}.cls-3{letter-spacing:-.04em;}.cls-4{letter-spacing:-.03em;}.cls-5{letter-spacing:-.03em;}.cls-6{letter-spacing:-.05em;}.cls-7{letter-spacing:-.03em;}.cls-11{font-weight:700;}.cls-8{letter-spacing:-.03em;}.cls-9{letter-spacing:-.02em;}.cls-12{font-family:Montserrat-Bold, Montserrat;font-size:186px;letter-spacing:0em;}</style></defs><g><path class="cls-10" d="m296.29,689.33c5.78.67,11.66,1.03,17.62,1.03,83.04,0,150.36-67.31,150.37-150.35-86.51.52-157.7,65.49-167.98,149.32Z"/><path class="cls-10" d="m464.27,540c0-76.63-57.33-139.88-131.44-149.18v149.18h131.44Z"/><path class="cls-10" d="m331.52,390.67c-5.78-.67-11.66-1.03-17.62-1.03-83.04,0-150.36,67.31-150.37,150.35,86.51-.52,157.7-65.49,167.98-149.32Z"/><path class="cls-10" d="m163.54,540c0,76.63,57.33,139.88,131.44,149.18v-149.18s-131.44,0-131.44,0Z"/><path class="cls-10" d="m294.98,690.24c.4.06.78.11,1.18.13.04-.35.09-.69.13-1.03-.44-.05-.88-.1-1.31-.15v1.06Z"/><path class="cls-10" d="m464.27,540.01c.35,0,.7-.01,1.05-.01h-1.05s0,0,0,.01Z"/><path class="cls-10" d="m332.83,389.76c-.4-.06-.78-.11-1.18-.13-.04.35-.09.69-.13,1.03.44.05.88.1,1.31.15v-1.06Z"/><path class="cls-10" d="m163.54,539.99c-.35,0-.7.01-1.05.01h1.05s0,0,0-.01Z"/></g><text class="cls-11" transform="translate(604.19 609.12)"><tspan class="cls-4" x="0" y="0">S</tspan><tspan class="cls-2" x="126.73" y="0">y</tspan><tspan class="cls-4" x="243.01" y="0">n</tspan><tspan class="cls-8" x="354.46" y="0">t</tspan><tspan class="cls-1" x="428.88" y="0">h</tspan><tspan class="cls-5" x="541.35" y="0">e</tspan><tspan class="cls-3" x="648.67" y="0">t</tspan><tspan class="cls-7" x="722.22" y="0">i</tspan><tspan class="cls-9" x="772.62" y="0">c</tspan><tspan class="cls-6" x="884.07" y="0">a</tspan><tspan class="cls-12" x="985.83" y="-11">™</tspan></text></svg>